<svg width="16" height="16" viewBox="0 0 16 16" fill="none" xmlns="http://www.w3.org/2000/svg">
<g clip-path="url(#clip0_4_1036)">
<path d="M7.99972 9.14251C9.57768 9.14251 10.8569 7.86332 10.8569 6.28537C10.8569 4.70741 9.57768 3.42822 7.99972 3.42822C6.42177 3.42822 5.14258 4.70741 5.14258 6.28537C5.14258 7.86332 6.42177 9.14251 7.99972 9.14251Z" stroke="#181B2A" stroke-linecap="round" stroke-linejoin="round"/>
<path d="M3.11963 13.5997C3.62962 12.7626 4.34638 12.0707 5.20101 11.5907C6.05564 11.1106 7.01939 10.8584 7.99963 10.8584C8.97987 10.8584 9.94362 11.1106 10.7982 11.5907C11.6529 12.0707 12.3696 12.7626 12.8797 13.5997" stroke="#181B2A" stroke-linecap="round" stroke-linejoin="round"/>
<path d="M7.99986 15.4284C12.1026 15.4284 15.4284 12.1026 15.4284 7.99986C15.4284 3.89717 12.1026 0.571289 7.99986 0.571289C3.89717 0.571289 0.571289 3.89717 0.571289 7.99986C0.571289 12.1026 3.89717 15.4284 7.99986 15.4284Z" stroke="#181B2A" stroke-linecap="round" stroke-linejoin="round"/>
</g>
<defs>
<clipPath id="clip0_4_1036">
<rect width="16" height="16" fill="white"/>
</clipPath>
</defs>
</svg>
