<svg width="16" height="16" viewBox="0 0 16 16" fill="none" xmlns="http://www.w3.org/2000/svg">
<g clip-path="url(#clip0_4_1036)">
<path fill-rule="evenodd" clip-rule="evenodd" d="M7.99986 0.0712891C3.62103 0.0712891 0.0712891 3.62103 0.0712891 7.99986C0.0712891 12.3787 3.62103 15.9284 7.99986 15.9284C12.3787 15.9284 15.9284 12.3787 15.9284 7.99986C15.9284 3.62103 12.3787 0.0712891 7.99986 0.0712891ZM1.07129 7.99986C1.07129 4.17332 4.17332 1.07129 7.99986 1.07129C11.8265 1.07129 14.9284 4.17331 14.9284 7.99986C14.9284 9.88021 14.1794 11.5856 12.9635 12.8339C12.4477 12.1492 11.7945 11.5767 11.0432 11.1548C10.1138 10.6326 9.06571 10.3584 7.9997 10.3584C6.93371 10.3584 5.88564 10.6326 4.95624 11.1547L7.9997 11.3584L4.95618 11.1548C4.20502 11.5767 3.5518 12.1491 3.03609 12.8337C1.82024 11.5854 1.07129 9.88012 1.07129 7.99986ZM3.78652 13.5006C4.22648 12.8972 4.79198 12.3939 5.44593 12.0266L5.44599 12.0266C6.22582 11.5885 7.10523 11.3584 7.9997 11.3584C8.89417 11.3584 9.77358 11.5885 10.5534 12.0266L10.5535 12.0266C11.2075 12.394 11.773 12.8973 12.213 13.5008C11.0456 14.3962 9.58488 14.9284 7.99986 14.9284C6.41476 14.9284 4.95398 14.3962 3.78652 13.5006ZM4.64258 6.28537C4.64258 4.43127 6.14562 2.92822 7.99972 2.92822C9.85382 2.92822 11.3569 4.43127 11.3569 6.28537C11.3569 8.13946 9.85382 9.64251 7.99972 9.64251C6.14562 9.64251 4.64258 8.13946 4.64258 6.28537ZM7.99972 3.92822C6.69791 3.92822 5.64258 4.98355 5.64258 6.28537C5.64258 7.58718 6.69791 8.64251 7.99972 8.64251C9.30153 8.64251 10.3569 7.58718 10.3569 6.28537C10.3569 4.98355 9.30153 3.92822 7.99972 3.92822Z" fill="#181B2A"/>
</g>
<defs>
<clipPath id="clip0_4_1036">
<rect width="16" height="16" fill="white"/>
</clipPath>
</defs>
</svg>
